<svg width="25" height="22" viewBox="0 0 25 22" fill="none" xmlns="http://www.w3.org/2000/svg">
<path d="M16.7957 0.965234C14.6716 1.13223 12.4269 2.34927 11.1324 4.03402C10.8874 4.35328 10.7706 4.48154 10.9005 4.91814C12.4215 7.74133 13.7548 10.6671 15.2501 13.5029C15.3407 13.6748 15.8685 14.6981 15.9329 14.7303C16.113 14.8192 16.197 14.7352 16.3171 14.6222C16.6385 14.3204 17.0348 13.6562 17.3786 13.2824C18.5181 12.0441 20.1199 10.898 21.7299 10.3751C22.3946 10.159 23.711 10.1492 23.2673 9.08717L18.7397 1.44495C18.3151 0.824974 17.4659 0.912841 16.7963 0.965234H16.7957ZM7.13585 4.56667C5.36324 4.69711 3.67904 5.44534 2.34357 6.59634C1.96864 6.91943 1.37922 7.34894 1.48346 7.8936L5.59464 16.445C6.20916 17.1349 6.8466 16.3768 7.43765 16.057C9.00943 15.2051 10.8574 14.9355 12.6338 15.0272C13.2745 15.0605 14.0124 15.2848 14.5991 15.3033C14.9636 15.3148 15.0106 15.1483 14.9085 14.8258L9.89955 4.99073C9.69217 4.69329 9.20317 4.65618 8.85934 4.61197C8.30813 4.54102 7.69088 4.52629 7.13585 4.56667ZM0.473814 9.14556C0.172557 9.21214 -0.0490199 9.7388 0.00937595 10.0215L5.26227 20.9797C5.47839 21.3557 5.80584 21.5342 6.24299 21.4654C6.56826 21.4141 7.38853 20.4858 7.72145 20.2157C9.63377 18.6641 12.1459 17.9562 14.5991 17.9748C14.9898 17.9775 15.5896 18.1129 15.9596 18.0894C16.5998 18.049 16.1768 17.2435 15.9574 16.9433C15.6971 16.5869 14.801 16.4401 14.3622 16.3555C12.3849 15.9746 10.1239 15.9653 8.27375 16.8385C7.43602 17.2342 6.94156 17.9251 5.92482 17.8072C5.34195 17.7396 4.82676 17.3363 4.55334 16.832L0.917513 9.27927C0.818185 9.13356 0.635903 9.11009 0.473268 9.14611L0.473814 9.14556Z" fill="#DFE4F0"/>
<path d="M5.93236 17.6811C5.66821 17.6811 5.27745 17.596 4.91616 17.19L4.85722 17.1239L0.672365 8.41966L0.657084 8.33944C0.493358 7.48587 1.19629 6.89373 1.61598 6.54008C1.65309 6.50843 1.68965 6.47786 1.72404 6.44839C3.19758 5.17842 5.02858 4.40399 6.88033 4.2681C7.09754 4.25227 7.32403 4.24409 7.5538 4.24409C7.95438 4.24409 8.36097 4.26919 8.73044 4.31667L8.81012 4.3265C9.22599 4.3778 9.85361 4.45475 10.2051 4.95903L10.2296 4.9945L15.2817 14.9136L15.2975 14.9627C15.3428 15.1057 15.4809 15.5412 15.2146 15.9058C15.0967 16.0668 14.8642 16.2583 14.4249 16.2583C14.4074 16.2583 14.3894 16.2583 14.3708 16.2573C14.0265 16.2463 13.6575 16.1781 13.3011 16.1121C12.9901 16.0542 12.6681 15.9947 12.393 15.9806C12.1845 15.9696 11.9755 15.9642 11.7708 15.9642C10.145 15.9642 8.71735 16.2911 7.52814 16.9351C7.42773 16.9891 7.31203 17.0699 7.18923 17.1545C6.83394 17.4006 6.43118 17.6795 5.93399 17.6795L5.93236 17.6811Z" fill="#DFE4F0"/>
<path d="M7.54718 4.87176C7.9172 4.87176 8.29323 4.89414 8.64306 4.93943C8.98634 4.98364 9.47534 5.02075 9.68327 5.31819L14.6922 15.1532C14.791 15.4654 14.7506 15.6313 14.4177 15.6313C14.4068 15.6313 14.3948 15.6313 14.3833 15.6308C13.7972 15.6122 13.0588 15.3874 12.418 15.3546C12.2008 15.3432 11.982 15.3377 11.7631 15.3377C10.193 15.3377 8.60104 15.6368 7.22137 16.3845C6.80441 16.6104 6.36453 17.0536 5.92629 17.0536C5.74292 17.0536 5.55954 16.9761 5.37835 16.7725L1.26718 8.22106C1.16294 7.6764 1.75181 7.24689 2.12729 6.9238C3.46275 5.7728 5.14695 5.02457 6.91956 4.89414C7.12259 4.8794 7.33379 4.87176 7.54718 4.87176ZM7.54718 3.61652C7.30214 3.61652 7.06037 3.62526 6.82788 3.64217C4.84297 3.78789 2.88261 4.6158 1.30811 5.9731C1.27536 6.00148 1.24098 6.0304 1.20551 6.05987C0.982838 6.24761 0.705048 6.48119 0.469282 6.79118C-0.0289929 7.44445 -0.0420911 8.05788 0.0348605 8.45792L0.0654228 8.61837L0.136371 8.76573L4.24755 17.3172L4.32395 17.4765L4.44129 17.6086C4.95757 18.1882 5.53389 18.3094 5.92629 18.3094C6.61994 18.3094 7.15151 17.941 7.539 17.6725C7.64214 17.601 7.74911 17.5267 7.81952 17.4885C8.90066 16.9029 10.264 16.5935 11.7631 16.5935C11.9569 16.5935 12.1555 16.5984 12.3531 16.6088C12.5867 16.6208 12.8748 16.6743 13.1794 16.7305C13.5587 16.8009 13.9511 16.8735 14.3435 16.886C14.3686 16.8866 14.3937 16.8871 14.4177 16.8871C15.1572 16.8871 15.5474 16.5051 15.7139 16.2775C16.0157 15.8655 16.0746 15.3595 15.8891 14.7739L15.8579 14.6757L15.811 14.584L10.8021 4.74897L10.7628 4.67201L10.7131 4.60107C10.2017 3.86703 9.34163 3.76115 8.87992 3.70439C8.85372 3.70112 8.82862 3.69784 8.80351 3.69511C8.40839 3.64436 7.97396 3.61707 7.54718 3.61707V3.61652Z" fill="#4E5871"/>
<path d="M16.2406 15.4493C16.1025 15.4493 15.9628 15.415 15.8258 15.3473C15.6879 15.2793 15.3306 14.7048 14.7539 13.6238C14.2169 12.6169 13.5909 11.4255 13.0375 10.3536C10.509 5.46039 10.3622 4.83004 10.3142 4.62265C10.2918 4.52769 10.2247 4.23789 10.4239 3.97866C11.8309 2.1482 14.2295 0.847661 16.5358 0.666471L16.5958 0.661559C16.7972 0.645732 17.0254 0.627176 17.2584 0.627176C17.5667 0.627176 18.506 0.627176 19.0468 1.41688L19.0583 1.4338L23.6192 9.13114L23.6361 9.17152C23.8184 9.60758 23.8211 10.0011 23.6448 10.3411C23.3408 10.9267 22.6543 11.0795 22.102 11.2017C21.9541 11.2345 21.8149 11.2656 21.7134 11.2983C20.3141 11.7529 18.7876 12.7751 17.6301 14.0337C17.5253 14.1477 17.4658 14.2722 17.391 14.4293C17.2917 14.6384 17.1678 14.8981 16.9184 15.1328L16.9124 15.1383C16.7972 15.2463 16.5833 15.4483 16.2411 15.4483L16.2406 15.4493Z" fill="#DFE4F0"/>
<path d="M17.2559 1.25587C17.7492 1.25587 18.2366 1.34919 18.5264 1.7727L23.0545 9.41491C23.4982 10.4769 22.1819 10.4868 21.5171 10.7029C19.9072 11.2257 18.3054 12.3718 17.1658 13.6101C16.822 13.984 16.8078 14.3747 16.4864 14.6771C16.4012 14.7568 16.3346 14.8223 16.2391 14.8223C16.1993 14.8223 16.1551 14.8108 16.1021 14.7851C16.0372 14.7529 10.6741 4.68103 10.9197 4.3623C12.2142 2.67756 14.4594 1.46052 16.583 1.29352C16.7958 1.2766 17.0267 1.25641 17.2559 1.25641M17.2559 0.000627518C16.9983 0.000627518 16.7565 0.019729 16.5437 0.0366474L16.4842 0.0415592C14.0092 0.236394 11.4338 1.63189 9.92365 3.59661C9.7501 3.82201 9.57109 4.20786 9.70043 4.76453C9.76374 5.03795 9.91273 5.67812 12.4772 10.6412C13.0323 11.7147 13.6593 12.9094 14.1975 13.919C14.4267 14.3491 14.6253 14.7169 14.771 14.9838C14.8436 15.117 14.902 15.2223 14.9441 15.2965C15.0434 15.4717 15.194 15.7364 15.5449 15.9099C15.7692 16.0207 16.0028 16.0769 16.238 16.0769C16.8291 16.0769 17.1866 15.7402 17.3394 15.5967L17.3454 15.5912C17.681 15.2758 17.8458 14.9298 17.9544 14.7006C18.0156 14.5718 18.0494 14.5024 18.0887 14.4599C19.1764 13.2772 20.603 12.3189 21.9041 11.8965C21.9767 11.873 22.1076 11.8435 22.2348 11.8157C22.8422 11.6809 23.7602 11.4773 24.199 10.6314C24.3818 10.2788 24.5324 9.69761 24.2121 8.93082L24.1782 8.85005L24.1335 8.77474L19.6059 1.13252L19.5846 1.09705L19.5611 1.06321C19.0781 0.358097 18.3021 0.000627518 17.2553 0.000627518H17.2559Z" fill="#4E5871"/>
<path d="M23.9938 13.1586C24.0342 13.1182 24.1387 12.9065 24.1063 12.5683C24.0585 12.0686 23.1756 10.9779 23.0441 10.8573C22.739 10.5779 21.9258 11.3991 21.665 11.482C19.399 12.2013 18.4494 12.9948 16.7799 14.8106C16.555 15.0551 15.2414 15.9163 14.6973 16.42C14.5723 16.3949 14.4572 16.3736 14.3633 16.3556C12.386 15.9747 10.125 15.9654 8.27484 16.8386C7.43711 17.2343 6.94265 17.9252 5.92591 17.8073C5.34304 17.7396 4.82785 17.3363 4.55443 16.8321L0.918059 9.27934C0.818731 9.13362 0.636449 9.11016 0.473814 9.14618C0.172557 9.21276 -0.0490199 9.73941 0.00937595 10.0221L5.26227 20.9803C5.47839 21.3564 5.80584 21.5348 6.24299 21.4661C6.56826 21.4148 7.38854 20.4864 7.72145 20.2163C9.63377 18.6647 12.1459 17.9569 14.5991 17.9754C14.8981 17.9776 15.32 18.0573 15.6671 18.084C15.7561 18.0906 15.8423 18.1118 15.928 18.1353C16.2974 18.2341 16.6451 17.6458 16.9152 17.404C18.2382 16.2224 20.0675 15.7367 21.8008 15.5768C22.2287 15.5375 23.2804 15.7143 23.1276 14.9077C23.0785 14.6496 22.1452 13.4325 22.2102 13.3392C22.4901 13.2131 23.7728 13.3818 23.9938 13.1597V13.1586Z" fill="#4E5871"/>
</svg>
