<svg width="25" height="22" viewBox="0 0 25 22" fill="none" xmlns="http://www.w3.org/2000/svg">
<g clip-path="url(#clip0_29388_350)">
<path d="M16.7957 0.965064C14.6716 1.13207 12.4269 2.3491 11.1324 4.03385C10.8874 4.35311 10.7706 4.48137 10.9005 4.91797C12.4215 7.74116 13.7548 10.667 15.2501 13.5027C15.3407 13.6746 15.8685 14.6979 15.9329 14.7301C16.113 14.8191 16.197 14.735 16.3171 14.622C16.6385 14.3202 17.0348 13.6561 17.3786 13.2822C18.5181 12.0439 20.1199 10.8978 21.7299 10.375C22.3946 10.1589 23.711 10.149 23.2673 9.087L18.7397 1.44478C18.3151 0.824805 17.4659 0.912671 16.7963 0.965064H16.7957ZM7.13585 4.5665C5.36324 4.69694 3.67904 5.44517 2.34357 6.59617C1.96864 6.91926 1.37922 7.34877 1.48346 7.89343L5.59464 16.4449C6.20916 17.1347 6.8466 16.3767 7.43765 16.0568C9.00943 15.2049 10.8574 14.9353 12.6338 15.027C13.2745 15.0603 14.0124 15.2846 14.5991 15.3032C14.9636 15.3146 15.0106 15.1482 14.9085 14.8256L9.89955 4.99056C9.69217 4.69312 9.20317 4.65601 8.85935 4.6118C8.30813 4.54085 7.69088 4.52612 7.13585 4.5665ZM0.473814 9.14539C0.172557 9.21198 -0.0490199 9.73863 0.00937595 10.0213L5.26227 20.9796C5.47839 21.3556 5.80584 21.534 6.24299 21.4653C6.56826 21.414 7.38853 20.4856 7.72145 20.2155C9.63377 18.6639 12.1459 17.9561 14.5991 17.9746C14.9898 17.9774 15.5896 18.1127 15.9596 18.0892C16.5998 18.0488 16.1768 17.2433 15.9574 16.9431C15.6971 16.5868 14.801 16.44 14.3622 16.3554C12.3849 15.9744 10.1239 15.9652 8.27375 16.8384C7.43602 17.234 6.94156 17.925 5.92482 17.8071C5.34195 17.7394 4.82676 17.3361 4.55334 16.8318L0.917513 9.2791C0.818185 9.13339 0.635903 9.10992 0.473268 9.14594L0.473814 9.14539Z" fill="#4E5871"/>
<path d="M5.93236 17.6812C5.66821 17.6812 5.27745 17.596 4.91616 17.19L4.85722 17.124L0.672365 8.41972L0.657084 8.33949C0.493358 7.48593 1.19629 6.89378 1.61598 6.54013C1.65309 6.50848 1.68965 6.47792 1.72404 6.44845C3.19758 5.17847 5.02858 4.40405 6.88033 4.26815C7.09754 4.25233 7.32403 4.24414 7.5538 4.24414C7.95438 4.24414 8.36097 4.26925 8.73044 4.31673L8.81012 4.32655C9.22599 4.37785 9.85361 4.4548 10.2051 4.95908L10.2296 4.99455L15.2817 14.9137L15.2975 14.9628C15.3428 15.1058 15.4809 15.5413 15.2146 15.9058C15.0967 16.0668 14.8642 16.2584 14.4249 16.2584C14.4074 16.2584 14.3894 16.2584 14.3708 16.2573C14.0265 16.2464 13.6575 16.1782 13.3011 16.1121C12.9901 16.0543 12.6681 15.9948 12.393 15.9806C12.1845 15.9697 11.9755 15.9642 11.7708 15.9642C10.145 15.9642 8.71735 16.2911 7.52814 16.9351C7.42773 16.9892 7.31203 17.0699 7.18923 17.1545C6.83394 17.4007 6.43118 17.6795 5.93399 17.6795L5.93236 17.6812Z" fill="#4E5871"/>
<path d="M7.54718 4.87194C7.9172 4.87194 8.29323 4.89431 8.64306 4.93961C8.98634 4.98382 9.47534 5.02093 9.68327 5.31836L14.6922 15.1534C14.791 15.4656 14.7506 15.6315 14.4177 15.6315C14.4068 15.6315 14.3948 15.6315 14.3833 15.631C13.7972 15.6124 13.0588 15.3876 12.418 15.3548C12.2008 15.3433 11.982 15.3379 11.7631 15.3379C10.193 15.3379 8.60104 15.637 7.22137 16.3846C6.80441 16.6106 6.36453 17.0537 5.92629 17.0537C5.74292 17.0537 5.55954 16.9762 5.37835 16.7727L1.26718 8.22124C1.16294 7.67657 1.75181 7.24706 2.12729 6.92398C3.46275 5.77298 5.14695 5.02475 6.91956 4.89431C7.12259 4.87958 7.33379 4.87194 7.54718 4.87194ZM7.54718 3.6167C7.30214 3.6167 7.06037 3.62543 6.82788 3.64235C4.84297 3.78807 2.88261 4.61598 1.30811 5.97327C1.27536 6.00165 1.24098 6.03058 1.20551 6.06005C0.982838 6.24779 0.705048 6.48137 0.469282 6.79136C-0.0289929 7.44463 -0.042091 8.05806 0.0348605 8.4581L0.0654228 8.61855L0.136371 8.7659L4.24755 17.3173L4.32395 17.4767L4.44129 17.6088C4.95757 18.1884 5.53389 18.3095 5.92629 18.3095C6.61995 18.3095 7.15151 17.9411 7.539 17.6726C7.64214 17.6011 7.74911 17.5269 7.81952 17.4887C8.90066 16.9031 10.264 16.5937 11.7631 16.5937C11.9569 16.5937 12.1555 16.5986 12.3531 16.609C12.5867 16.621 12.8748 16.6744 13.1794 16.7307C13.5587 16.8011 13.9511 16.8736 14.3435 16.8862C14.3686 16.8867 14.3937 16.8873 14.4177 16.8873C15.1572 16.8873 15.5474 16.5053 15.7139 16.2777C16.0157 15.8656 16.0746 15.3597 15.8891 14.7741L15.8579 14.6759L15.811 14.5842L10.8021 4.74914L10.7628 4.67219L10.7131 4.60124C10.2017 3.8672 9.34163 3.76132 8.87992 3.70457C8.85372 3.70129 8.82862 3.69802 8.80351 3.69529C8.40839 3.64453 7.97396 3.61724 7.54718 3.61724V3.6167Z" fill="white"/>
<path d="M16.2406 15.4491C16.1025 15.4491 15.9628 15.4147 15.8258 15.3471C15.6879 15.279 15.3306 14.7045 14.7539 13.6236C14.2169 12.6167 13.5909 11.4253 13.0375 10.3534C10.509 5.46016 10.3622 4.82982 10.3142 4.62243C10.2918 4.52747 10.2247 4.23767 10.4239 3.97844C11.8309 2.14797 14.2295 0.847438 16.5358 0.666248L16.5958 0.661336C16.7972 0.645509 17.0254 0.626953 17.2584 0.626953C17.5667 0.626953 18.506 0.626953 19.0468 1.41666L19.0583 1.43358L23.6192 9.13091L23.6361 9.1713C23.8184 9.60736 23.8211 10.0008 23.6448 10.3409C23.3408 10.9264 22.6543 11.0793 22.102 11.2015C21.9541 11.2343 21.8149 11.2654 21.7134 11.2981C20.3141 11.7527 18.7876 12.7749 17.6301 14.0334C17.5253 14.1475 17.4658 14.2719 17.391 14.4291C17.2917 14.6381 17.1678 14.8979 16.9184 15.1326L16.9124 15.138C16.7972 15.2461 16.5833 15.448 16.2411 15.448L16.2406 15.4491Z" fill="#4E5871"/>
<path d="M17.2559 1.25524C17.7492 1.25524 18.2366 1.34856 18.5264 1.77207L23.0545 9.41428C23.4982 10.4763 22.1819 10.4861 21.5171 10.7023C19.9072 11.2251 18.3054 12.3712 17.1658 13.6095C16.822 13.9833 16.8078 14.3741 16.4864 14.6765C16.4012 14.7561 16.3346 14.8216 16.2391 14.8216C16.1993 14.8216 16.1551 14.8102 16.1021 14.7845C16.0372 14.7523 10.6741 4.6804 10.9197 4.36168C12.2142 2.67693 14.4594 1.4599 16.583 1.29289C16.7958 1.27598 17.0267 1.25578 17.2559 1.25578M17.2559 0C16.9983 0 16.7565 0.0191014 16.5437 0.0360199L16.4842 0.0409317C14.0092 0.235766 11.4338 1.63126 9.92365 3.59598C9.7501 3.82138 9.57109 4.20723 9.70043 4.7639C9.76374 5.03732 9.91273 5.67749 12.4772 10.6406C13.0323 11.7141 13.6593 12.9088 14.1975 13.9184C14.4267 14.3485 14.6253 14.7163 14.771 14.9832C14.8436 15.1163 14.902 15.2217 14.9441 15.2959C15.0434 15.4711 15.194 15.7358 15.5449 15.9093C15.7692 16.0201 16.0028 16.0763 16.238 16.0763C16.8291 16.0763 17.1866 15.7396 17.3394 15.5961L17.3454 15.5906C17.681 15.2751 17.8458 14.9291 17.9544 14.6999C18.0156 14.5711 18.0494 14.5018 18.0887 14.4592C19.1764 13.2766 20.603 12.3182 21.9041 11.8958C21.9767 11.8724 22.1076 11.8429 22.2348 11.8151C22.8422 11.6803 23.7602 11.4767 24.199 10.6308C24.3818 10.2782 24.5324 9.69698 24.2121 8.9302L24.1782 8.84942L24.1335 8.77411L19.6059 1.1319L19.5846 1.09642L19.5611 1.06259C19.0781 0.35747 18.3021 0 17.2553 0H17.2559Z" fill="white"/>
<path d="M23.9938 13.1582C24.0342 13.1178 24.1387 12.9061 24.1063 12.568C24.0585 12.0682 23.1756 10.9775 23.0441 10.8569C22.739 10.5775 21.9258 11.3987 21.665 11.4816C19.399 12.2009 18.4494 12.9945 16.7799 14.8102C16.555 15.0547 15.2414 15.9159 14.6973 16.4196C14.5723 16.3945 14.4572 16.3732 14.3633 16.3552C12.386 15.9743 10.125 15.965 8.27484 16.8382C7.43711 17.2339 6.94265 17.9248 5.92591 17.8069C5.34304 17.7393 4.82785 17.3359 4.55443 16.8317L0.918059 9.27896C0.818731 9.13324 0.636449 9.10977 0.473814 9.14579C0.172557 9.21238 -0.0490199 9.73903 0.00937595 10.0217L5.26227 20.98C5.47839 21.356 5.80584 21.5344 6.24299 21.4657C6.56826 21.4144 7.38854 20.486 7.72145 20.2159C9.63377 18.6643 12.1459 17.9565 14.5991 17.975C14.8981 17.9772 15.32 18.0569 15.6671 18.0836C15.7561 18.0902 15.8423 18.1115 15.928 18.1349C16.2974 18.2337 16.6451 17.6454 16.9152 17.4036C18.2382 16.2221 20.0675 15.7363 21.8008 15.5764C22.2287 15.5371 23.2804 15.714 23.1276 14.9073C23.0785 14.6492 22.1452 13.4322 22.2102 13.3388C22.4901 13.2128 23.7728 13.3814 23.9938 13.1593V13.1582Z" fill="white"/>
</g>
<defs>
<clipPath id="clip0_29388_350">
<rect width="24.3964" height="21.4798" fill="white"/>
</clipPath>
</defs>
</svg>
