<svg width="118" height="118" viewBox="0 0 118 118" fill="none" xmlns="http://www.w3.org/2000/svg">
    <path d="M51.1165 98.6589C49.3051 98.6589 47.5691 97.9041 46.2105 96.621L24.2467 74.6572C22.4352 72.8457 21.7559 70.204 22.5107 67.7888C23.2655 65.449 25.0769 63.864 27.4922 63.4111L44.55 61.5996C47.4936 61.2977 50.2108 60.0146 52.2487 57.9767L62.0607 48.1647L66.061 42.4285L78.5902 54.9577L72.4765 59.2599L63.0419 68.77C61.004 70.8079 59.7209 73.4496 59.419 76.3932L57.5321 93.2246C56.9283 96.5455 54.362 98.7344 51.1165 98.7344V98.6589Z"
          fill="white"/>
    <path d="M66.3459 46.8062L74.1201 54.5803L70.7991 56.9201L60.987 66.7321C58.4963 69.2229 56.9868 72.4684 56.5339 76.0158L54.647 92.8472C54.3451 94.7341 52.76 95.7908 51.0996 95.7908C50.1184 95.7908 49.0617 95.4134 48.2314 94.5832L41.363 87.7148L33.136 79.4878L26.2676 72.6194C24.0033 70.355 24.9845 66.6567 28.0036 66.1283L44.9104 64.3924C48.5333 64.015 51.7788 62.43 54.3451 59.9392L64.1571 50.1272L66.4969 46.7307M65.5912 38.0509L61.7418 43.5607L59.7039 46.5043L50.2693 55.9389C48.6843 57.5239 46.5709 58.5051 44.3066 58.7316L27.3998 60.4676H27.1733H26.9469C23.5504 61.0714 20.7578 63.4866 19.7766 66.8076C18.7199 70.2041 19.6256 73.9779 22.1918 76.5442L29.0602 83.4126L37.2873 91.6396L44.1557 98.508C46.0426 100.395 48.4579 101.376 51.0241 101.376C55.5527 101.376 59.402 98.1306 60.1568 93.7529L62.1192 76.5442C62.3456 74.2799 63.3268 72.1665 64.9119 70.657L74.422 61.1468L77.3656 59.0335L82.8754 55.1842L78.1203 50.4291L70.3462 42.655L65.5912 37.8999V38.0509Z"
          fill="#4E5871"/>
    <path d="M32.747 64.6185L61.0509 72.5436L56.5978 96.9227L46.6348 97.5265L23.2369 72.921L23.0859 65.9016L27.1617 63.4863L32.747 64.6185Z"
          fill="#4E5871"/>
    <path d="M81.728 44.1249C84.104 44.1249 86.0302 42.1987 86.0302 39.8227C86.0302 37.4467 84.104 35.5205 81.728 35.5205C79.3519 35.5205 77.4258 37.4467 77.4258 39.8227C77.4258 42.1987 79.3519 44.1249 81.728 44.1249Z"
          fill="#4E5871"/>
    <path d="M74.2788 21.8898C76.6548 21.8898 78.5809 19.9636 78.5809 17.5876C78.5809 15.2116 76.6548 13.2854 74.2788 13.2854C71.9027 13.2854 69.9766 15.2116 69.9766 17.5876C69.9766 19.9636 71.9027 21.8898 74.2788 21.8898Z"
          fill="#4E5871"/>
    <path d="M89.4858 30.4945C91.8618 30.4945 93.788 28.5684 93.788 26.1923C93.788 23.8163 91.8618 21.8901 89.4858 21.8901C87.1097 21.8901 85.1836 23.8163 85.1836 26.1923C85.1836 28.5684 87.1097 30.4945 89.4858 30.4945Z"
          fill="#4E5871"/>
</svg>
