<svg width="39" height="42" viewBox="0 0 39 42" fill="none" xmlns="http://www.w3.org/2000/svg">
  <g clip-path="url(#clip0_5533_1317)">
    <path
      d="M29.4678 0H9.42879C7.39136 0 5.73047 1.66089 5.73047 3.69832V16.8771C5.73047 18.9146 7.39136 20.5755 9.42879 20.5755H29.4678C31.5052 20.5755 33.1661 18.9146 33.1661 16.8771V3.69832C33.1661 1.66089 31.5052 0 29.4678 0Z"
      fill="#DEE4F1"/>
    <path
      d="M32.2789 5.55005H6.61766C4.00768 5.55005 1.88257 7.67516 1.88257 10.2851V27.1623C1.88257 29.7722 4.00768 31.8974 6.61766 31.8974H32.2789C34.8889 31.8974 37.014 29.7722 37.014 27.1623V10.2851C37.014 7.67516 34.8889 5.55005 32.2789 5.55005Z"
      fill="#B6BED2"/>
    <path
      d="M33.7388 11.7913H5.25605C2.35723 11.7913 0 14.1485 0 17.0473V35.7813C0 38.6802 2.35723 41.0374 5.25605 41.0374H33.7388C36.6376 41.0374 38.9948 38.6802 38.9948 35.7813V17.0473C38.9948 14.1485 36.6376 11.7913 33.7388 11.7913Z"
      fill="#4E5871"/>
    <path
      d="M28.9161 17.5012L19.9411 15.7836C19.7761 15.7527 19.611 15.7372 19.446 15.7372C19.2345 15.7372 19.0282 15.7733 18.827 15.8197C18.5588 15.7939 18.2854 15.7991 18.012 15.861L9.60956 17.8262C8.28394 18.1357 7.45865 19.4665 7.76814 20.7921L11.0229 34.693C11.3323 36.0186 12.6631 36.8439 13.9887 36.5344L16.7792 35.8794L25.0889 37.468C25.2539 37.499 25.419 37.5145 25.584 37.5145C26.8117 37.5145 27.9103 36.6427 28.1476 35.3945L30.9897 20.5548C31.263 19.1363 30.3294 17.7695 28.9161 17.4961V17.5012ZM25.5789 34.9819H25.5737L22.7677 34.4454L16.6039 33.2642C16.6039 33.2642 16.5729 33.2591 16.5575 33.2333C16.542 33.2075 16.542 33.1869 16.5471 33.1765L19.3892 18.3368C19.3995 18.2801 19.4614 18.2749 19.4614 18.2749H19.4769L21.2049 18.6102L28.4468 19.9977C28.4468 19.9977 28.4777 20.0029 28.4932 20.0287C28.5086 20.0545 28.5086 20.0751 28.5035 20.0854L25.6614 34.9251C25.6511 34.9767 25.6047 34.987 25.5789 34.987V34.9819Z"
      fill="white"/>
  </g>
  <defs>
    <clipPath id="clip0_5533_1317">
      <rect width="39" height="41.0374" fill="white"/>
    </clipPath>
  </defs>
</svg>
