<svg width="27" height="29" viewBox="0 0 27 29" fill="none" xmlns="http://www.w3.org/2000/svg">
  <g clip-path="url(#clip0_1169_2)">
    <path
      d="M25.8349 14.5898L14.0918 1.22367C13.6959 0.775053 12.9834 0.775053 12.5876 1.22367L0.844447 14.5898C0.686112 14.7745 0.59375 15.012 0.59375 15.2495V27.4808C0.59375 28.035 1.04236 28.4836 1.59654 28.4836H9.53966C9.53966 28.4836 9.57924 28.4704 9.57924 28.444V21.4113C9.57924 19.353 11.123 17.4926 13.1814 17.4002C15.3453 17.3078 17.1265 19.0231 17.1265 21.1606V28.444C17.1265 28.444 17.1397 28.4836 17.1661 28.4836H25.1092C25.6634 28.4836 26.112 28.035 26.112 27.4808V15.2495C26.112 15.012 26.0197 14.7745 25.8613 14.5898H25.8349Z"
      fill="#4E5871"/>
  </g>
  <defs>
    <clipPath id="clip0_1169_2">
      <rect width="25.4919" height="27.6162" fill="white" transform="translate(0.59375 0.880859)"/>
    </clipPath>
  </defs>
</svg>
