<svg width="118" height="118" viewBox="0 0 118 118" fill="none" xmlns="http://www.w3.org/2000/svg">
  <g clip-path="url(#clip0_1255_3)">
    <path
      d="M45.4783 44.3003H29.3996C17.138 44.3003 7.20703 54.1329 7.20703 66.2732C7.20703 75.37 12.8143 83.1959 20.7861 86.5404C17.6109 94.7676 11.632 99.3829 11.632 99.3829C11.632 99.3829 25.3124 99.3829 34.8042 88.2795H45.4783C57.74 88.2795 67.6709 78.4469 67.6709 66.3066C67.6709 54.1663 57.74 44.3337 45.4783 44.3337V44.3003Z"
      fill="#4E5871"/>
    <path
      d="M25.1729 69.8507C27.1691 69.8507 28.7872 68.2485 28.7872 66.2721C28.7872 64.2958 27.1691 62.6936 25.1729 62.6936C23.1768 62.6936 21.5586 64.2958 21.5586 66.2721C21.5586 68.2485 23.1768 69.8507 25.1729 69.8507Z"
      fill="white"/>
    <path
      d="M38.044 69.8507C40.0401 69.8507 41.6583 68.2485 41.6583 66.2721C41.6583 64.2958 40.0401 62.6936 38.044 62.6936C36.0479 62.6936 34.4297 64.2958 34.4297 66.2721C34.4297 68.2485 36.0479 69.8507 38.044 69.8507Z"
      fill="white"/>
    <path
      d="M50.9073 69.8507C52.9034 69.8507 54.5216 68.2485 54.5216 66.2721C54.5216 64.2958 52.9034 62.6936 50.9073 62.6936C48.9112 62.6936 47.293 64.2958 47.293 66.2721C47.293 68.2485 48.9112 69.8507 50.9073 69.8507Z"
      fill="white"/>
    <path
      d="M99.1563 51.7241C105.405 49.1154 109.763 42.9951 109.763 35.8715C109.763 26.3733 101.994 18.6812 92.4006 18.6812H79.8349C70.2418 18.6812 62.4727 26.3733 62.4727 35.8715C62.4727 45.3696 70.2418 53.0618 79.8349 53.0618H88.1782C95.6096 61.7573 106.317 61.7573 106.317 61.7573C106.317 61.7573 101.622 58.1453 99.1563 51.7241Z"
      fill="#4E5871"/>
    <path
      d="M84.4014 38.1118C84.4014 33.8309 89.3669 33.3627 89.3669 30.4196C89.3669 29.249 88.5224 27.6437 86.2254 27.6437C83.7934 27.6437 82.8813 29.5835 82.9151 31.1219C82.9151 32.2256 82.3409 33.3627 80.8546 33.3627C79.3684 33.3627 78.7266 32.2256 78.7266 31.1219C78.7266 26.6404 82.5436 24.1321 86.1917 24.1321C89.8398 24.1321 93.4879 26.4732 93.4879 30.5534C93.4879 35.1687 88.6575 34.8342 88.6575 38.1118C88.6575 39.182 87.9144 40.2522 86.4957 40.2522C85.077 40.2522 84.3338 39.182 84.3338 38.1118H84.4014ZM86.5294 41.6903C87.813 41.6903 88.894 42.7605 88.894 44.0314C88.894 45.3023 87.813 46.4059 86.5294 46.4059C85.2459 46.4059 84.1312 45.3357 84.1312 44.0314C84.1312 42.7271 85.2121 41.6903 86.5294 41.6903Z"
      fill="white"/>
  </g>
  <defs>
    <clipPath id="clip0_1255_3">
      <rect width="102.586" height="80.7009" fill="white" transform="translate(7.20703 18.6494)"/>
    </clipPath>
  </defs>
</svg>
