<svg width="118" height="118" viewBox="0 0 118 118" fill="none" xmlns="http://www.w3.org/2000/svg">
  <g clip-path="url(#clip0_1255_42)">
    <path
      d="M58.5121 76.9355C56.9436 77.7398 55.0936 77.7398 53.5251 76.9355L46.8891 73.517L33.6172 66.7201V82.2845C33.6172 87.6335 44.0739 91.977 56.9436 91.977C69.8134 91.977 80.2701 87.6335 80.2701 82.2845V65.7549L65.5905 73.2756L58.4719 76.9355H58.5121Z"
      fill="#4E5871"/>
    <path
      d="M95.1087 45.887L57.5853 26.6226C56.5798 26.0998 55.4135 26.0998 54.4081 26.6226L16.8847 45.887C14.3509 47.174 14.3509 50.7936 16.8847 52.0806L22.2337 54.8154L33.6154 60.6872L54.4081 71.3852C55.4135 71.9081 56.5798 71.9081 57.5853 71.3852L80.2682 59.722L88.151 55.66V82.8876C86.5422 83.6517 85.4564 85.2604 85.4564 87.1105C85.4564 89.7246 87.5879 91.8562 90.2021 91.8562C92.8162 91.8562 94.9478 89.7246 94.9478 87.1105C94.9478 85.2202 93.8217 83.6115 92.213 82.8876V53.6089L95.1489 52.1208C97.6826 50.8338 97.6826 47.2142 95.1489 45.9272L95.1087 45.887Z"
      fill="#4E5871"/>
  </g>
  <defs>
    <clipPath id="clip0_1255_42">
      <rect width="82.0045" height="65.7966" fill="white" transform="translate(15 26.2205)"/>
    </clipPath>
  </defs>
</svg>
