<svg width="78" height="69" viewBox="0 0 78 69" fill="none" xmlns="http://www.w3.org/2000/svg">
  <path
    d="M48.5329 17.978C45.1777 15.2316 41.0835 13.5418 36.7679 13.1223C32.4524 12.7028 28.1094 13.5725 24.2881 15.6213C20.4668 17.6701 17.3388 20.806 15.2998 24.6325C13.2607 28.459 12.4022 32.8042 12.8327 37.1187C13.2631 41.4331 14.9634 45.5231 17.7183 48.8712C20.4732 52.2194 24.1591 54.6755 28.3099 55.9288C32.4607 57.1822 36.8899 57.1765 41.0375 55.9126C45.185 54.6487 48.8647 52.1832 51.6111 48.828L34.6469 34.9421L48.5329 17.978Z"
    fill="#4E5871"/>
  <circle cx="29.7326" cy="22.0426" r="3.06815" transform="rotate(-5.69803 29.7326 22.0426)" fill="white"/>
  <circle cx="46.5523" cy="33.754" r="4.25267" transform="rotate(-5.69803 46.5523 33.754)" fill="#4E5871"/>
  <circle cx="58.607" cy="32.5514" r="4.25267" transform="rotate(-5.69803 58.607 32.5514)" fill="#4E5871"/>
  <circle cx="70.6734" cy="31.3473" r="4.25267" transform="rotate(-5.69803 70.6734 31.3473)" fill="#4E5871"/>
</svg>
