<svg width="40" height="42" viewBox="0 0 40 42" fill="none" xmlns="http://www.w3.org/2000/svg">
  <g clip-path="url(#clip0_5533_1257)">
    <path
      d="M30.2056 0.615234H9.70079C7.616 0.615234 5.9165 2.29018 5.9165 4.34484V17.6352C5.9165 19.6898 7.616 21.3648 9.70079 21.3648H30.2056C32.2904 21.3648 33.9899 19.6898 33.9899 17.6352V4.34484C33.9899 2.29018 32.2904 0.615234 30.2056 0.615234Z"
      fill="#88F1CE"/>
    <path
      d="M33.0822 6.21228H6.82441C4.15376 6.21228 1.97925 8.35538 1.97925 10.9874V28.0073C1.97925 30.6394 4.15376 32.7825 6.82441 32.7825H33.0822C35.7529 32.7825 37.9274 30.6394 37.9274 28.0073V10.9874C37.9274 8.35538 35.7529 6.21228 33.0822 6.21228Z"
      fill="#03CA90"/>
    <path d="M28.1632 16.7872H8.08057V36.5796H28.1632V16.7872Z" fill="white"/>
    <path
      d="M34.5231 12.5063H5.37823C2.41202 12.5063 0 14.8835 0 17.8069V36.6994C0 39.6227 2.41202 41.9999 5.37823 41.9999H34.5231C37.4893 41.9999 39.9013 39.6227 39.9013 36.6994V17.8069C39.9013 14.8835 37.4893 12.5063 34.5231 12.5063ZM26.3475 28.8969L25.5981 29.3234L21.6343 31.5809L18.9584 33.105L16.2825 34.6291L16.0555 34.7592C15.3958 35.1337 14.641 35.0296 14.1132 34.6291C13.7068 34.3222 13.4324 33.8437 13.4324 33.2663V21.5469C13.4324 20.2204 14.8891 19.3934 16.0555 20.054L19.9032 22.2439L23.8669 24.5014L26.3475 25.9111C26.4003 25.9423 26.4425 25.9839 26.4953 26.0203C27.0178 26.3896 27.2553 26.9722 27.2078 27.5444C27.1656 28.075 26.8859 28.59 26.3528 28.8917L26.3475 28.8969Z"
      fill="#00805B"/>
  </g>
  <defs>
    <clipPath id="clip0_5533_1257">
      <rect width="39.9066" height="41.3846" fill="white" transform="translate(0 0.615234)"/>
    </clipPath>
  </defs>
</svg>
