<svg width="54" height="57" viewBox="0 0 54 57" fill="none" xmlns="http://www.w3.org/2000/svg">
  <path
    d="M40.9231 0.950378H13.512C10.725 0.950378 8.45312 3.1866 8.45312 5.9298V23.6738C8.45312 26.417 10.725 28.6532 13.512 28.6532H40.9231C43.7101 28.6532 45.982 26.417 45.982 23.6738V5.9298C45.982 3.1866 43.7101 0.950378 40.9231 0.950378Z"
    fill="#CCCAFF"/>
  <path
    d="M44.7663 8.42365H9.66456C6.09442 8.42365 3.1875 11.2849 3.1875 14.799V37.5224C3.1875 41.0364 6.09442 43.8977 9.66456 43.8977H44.7663C48.3364 43.8977 51.2433 41.0364 51.2433 37.5224V14.799C51.2433 11.2849 48.3364 8.42365 44.7663 8.42365Z"
    fill="#A09CF9"/>
  <path d="M48.5552 21.8685H5.31836V50.988H48.5552V21.8685Z" fill="white"/>
  <path
    d="M46.7656 16.8241H7.80442C3.83916 16.8241 0.614746 19.9979 0.614746 23.9008V49.1244C0.614746 53.0273 3.83916 56.2011 7.80442 56.2011H46.7656C50.7308 56.2011 53.9552 53.0273 53.9552 49.1244V23.9008C53.9552 19.9979 50.7308 16.8241 46.7656 16.8241ZM35.3566 24.1161C38.0025 24.1161 40.1474 26.2274 40.1474 28.8317C40.1474 29.1719 40.1121 29.5053 40.0415 29.8248C39.7664 31.0957 38.9691 32.1721 37.8825 32.8388C37.1487 33.2902 36.288 33.5541 35.3566 33.5541C34.4253 33.5541 33.5645 33.2902 32.8307 32.8388C31.7441 32.1721 30.9469 31.0957 30.6717 29.8248C30.6011 29.5053 30.5659 29.1719 30.5659 28.8317C30.5659 26.2274 32.7108 24.1161 35.3566 24.1161ZM47.1959 48.8049C46.7938 49.1869 46.2787 49.3813 45.7566 49.3813C45.2345 49.3813 44.6771 49.173 44.2749 48.7632L42.8144 47.284L41.9042 46.3603L39.9004 44.3255L37.8966 42.2907L37.3251 41.7073L36.7325 42.2907L34.6652 44.3255L32.5979 46.3603L32.2804 46.6728C32.1393 46.8117 31.977 46.9298 31.8147 47.0409C31.222 47.4437 30.5094 47.6521 29.7827 47.6034C29.1406 47.5618 28.5409 47.3326 28.0399 46.9576C27.8142 46.7909 27.6025 46.6034 27.419 46.3812L27.4049 46.3603L25.7963 44.3255L24.1876 42.2907L21.7957 39.2766L20.3423 37.4432L18.7759 39.2766L16.2006 42.2907L14.4649 44.3255L12.7292 46.3603L12.5105 46.6173L11.4451 47.8673C10.7113 48.7285 9.40605 48.8396 8.53115 48.1174C7.98787 47.6729 7.74092 47.0062 7.80442 46.3603C7.84676 45.9645 8.00198 45.5756 8.27715 45.2492L9.06738 44.3255L10.8031 42.2907L13.3784 39.2766L15.4033 36.9015L17.139 34.8667L17.8798 33.9986C18.5149 33.2555 19.4462 32.8249 20.4269 32.8596C21.4147 32.8805 22.3249 33.3249 22.9317 34.0889L23.5455 34.8597L25.1542 36.8946L27.038 39.2697L29.4228 42.2837L30.0649 43.0893L30.8834 42.2837L33.9455 39.2697L35.0321 38.2002C35.653 37.589 36.4926 37.2765 37.3534 37.2626C38.2283 37.2626 39.0538 37.6168 39.6605 38.2349L40.6766 39.2697L43.647 42.2837L45.6508 44.3186L47.2312 45.9228C47.3512 46.0409 47.4429 46.1728 47.5276 46.3117C48.0003 47.1034 47.8874 48.1312 47.1889 48.7979L47.1959 48.8049Z"
    fill="#4A43E8"/>
</svg>
