<svg width="39" height="42" viewBox="0 0 39 42" fill="none" xmlns="http://www.w3.org/2000/svg">
  <g clip-path="url(#clip0_5533_1305)">
    <path
      d="M29.0302 0H9.3165C7.31215 0 5.67822 1.66972 5.67822 3.71797V16.9668C5.67822 19.0151 7.31215 20.6848 9.3165 20.6848H29.0302C31.0345 20.6848 32.6684 19.0151 32.6684 16.9668V3.71797C32.6684 1.66972 31.0345 0 29.0302 0Z"
      fill="#FFDBCF"/>
    <path
      d="M31.7957 5.57959H6.55103C3.98344 5.57959 1.89282 7.716 1.89282 10.3398V27.3066C1.89282 29.9305 3.98344 32.0669 6.55103 32.0669H31.7957C34.3633 32.0669 36.4539 29.9305 36.4539 27.3066V10.3398C36.4539 7.716 34.3633 5.57959 31.7957 5.57959Z"
      fill="#FFC0AC"/>
    <path d="M30.187 15.6185H7.75854V35.8522H30.187V15.6185Z" fill="white"/>
    <path
      d="M33.1961 11.8021H5.17071C2.31896 11.8021 0 14.1719 0 17.0861V35.9197C0 38.8339 2.31896 41.2036 5.17071 41.2036H33.191C36.0428 41.2036 38.3617 38.8339 38.3617 35.9197V17.0861C38.3617 14.1719 36.0428 11.8021 33.191 11.8021H33.1961ZM25.4324 25.4139L16.0957 34.1255C16.0246 34.1929 15.9485 34.2396 15.8623 34.2811C15.7862 34.3329 15.705 34.3796 15.6035 34.4003L10.6865 35.5048C10.1283 35.6293 9.65132 35.09 9.82385 34.5403L11.3461 29.6401C11.3461 29.6401 11.3664 29.5934 11.3766 29.5727C11.4324 29.4171 11.5187 29.2719 11.6455 29.1526L20.9822 20.4411C21.4034 20.047 22.0529 20.0781 22.4386 20.5085L25.4933 23.9257C25.8789 24.3561 25.8485 25.0198 25.4273 25.4139H25.4324ZM28.411 22.6345L27.8072 23.1997C27.452 23.5264 26.909 23.5057 26.5843 23.1427L23.3063 19.4714C22.9866 19.1084 23.0069 18.5536 23.3621 18.2217L23.9659 17.6565C25.3106 16.4016 27.3962 16.5001 28.6241 17.8743C29.8521 19.2484 29.7557 21.3797 28.411 22.6345Z"
      fill="#FF8158"/>
  </g>
  <defs>
    <clipPath id="clip0_5533_1305">
      <rect width="38.3668" height="41.2088" fill="white"/>
    </clipPath>
  </defs>
</svg>
