<svg width="36" height="23" viewBox="0 0 36 23" fill="none" xmlns="http://www.w3.org/2000/svg">
<path d="M2.66967 9.64781H27.6897L21.6843 3.92061C20.99 3.25507 20.9553 2.15167 21.6148 1.4511C22.2744 0.750522 23.3679 0.715494 24.0621 1.38104L33.1744 10.0506C33.5215 10.3834 33.7124 10.8388 33.7124 11.3292C33.7124 11.8196 33.5215 12.275 33.1744 12.6077L24.0621 21.2949C23.7323 21.6102 23.2984 21.7677 22.8645 21.7677C22.3959 21.7677 21.9446 21.575 21.5975 21.2248C20.9379 20.5243 20.9726 19.4208 21.6669 18.7553L27.5161 13.1857H2.66967C1.71491 13.1857 0.933972 12.3976 0.933972 11.4343C0.933972 10.471 1.71491 9.68284 2.66967 9.68284V9.64781Z" fill="#4A43E8"/>
</svg>
