<svg width="118" height="118" viewBox="0 0 118 118" fill="none" xmlns="http://www.w3.org/2000/svg">
    <g clip-path="url(#clip0_1255_15)">
        <path d="M37.3012 82.1674H84.3752C85.6232 82.1674 86.6846 81.3743 87.0928 80.2779C87.3144 79.9747 87.4311 79.6481 87.4311 79.2516V31.1511C87.4311 25.4826 82.8356 20.8872 77.1671 20.8872H36.9163C31.2478 20.8872 26.6523 25.4826 26.6523 31.1511V86.9145C26.6523 90.1336 28.1336 93.0029 30.443 94.8807C32.2858 96.4669 34.6769 97.435 37.3012 97.435H84.3752C85.9848 97.435 87.2911 96.1287 87.2911 94.5191C87.2911 92.9096 85.9848 91.6032 84.3752 91.6032H37.3012C34.7002 91.6032 32.5891 89.4921 32.5891 86.8912C32.5891 84.2902 34.7002 82.1791 37.3012 82.1791V82.1674ZM47.4368 38.1492H66.9965C69.5858 38.1492 71.6853 40.2487 71.6853 42.838C71.6853 45.4273 69.5858 47.5267 66.9965 47.5267H47.4368C44.8475 47.5267 42.748 45.4273 42.748 42.838C42.748 40.2487 44.8475 38.1492 47.4368 38.1492Z"
              fill="#4E5871"/>
    </g>
    <defs>
        <clipPath id="clip0_1255_15">
            <rect width="60.7904" height="76.5361" fill="white" transform="translate(26.6523 20.8872)"/>
        </clipPath>
    </defs>
</svg>
