<svg width="49" height="43" viewBox="0 0 49 43" fill="none" xmlns="http://www.w3.org/2000/svg">
<g clip-path="url(#clip0_3344_1313)">
<path d="M14.8624 9.59299C15.5911 9.59299 16.3316 9.63706 17.0205 9.72626C17.6965 9.81331 18.6595 9.8864 19.069 10.4721L28.9329 29.84C29.1274 30.4547 29.0479 30.7815 28.3923 30.7815C28.3708 30.7815 28.3472 30.7815 28.3246 30.7804C27.1703 30.7439 25.7162 30.3011 24.4545 30.2366C24.0267 30.214 23.5958 30.2033 23.1648 30.2033C20.0728 30.2033 16.9377 30.7922 14.2208 32.2646C13.3997 32.7095 12.5335 33.5822 11.6705 33.5822C11.3093 33.5822 10.9482 33.4296 10.5914 33.0287L2.49541 16.1887C2.29013 15.1161 3.44978 14.2703 4.1892 13.634C6.81908 11.3674 10.1357 9.89392 13.6265 9.63706C14.0263 9.60804 14.4422 9.59299 14.8624 9.59299ZM14.8624 7.12109C14.3799 7.12109 13.9038 7.13829 13.4459 7.17161C9.5371 7.45856 5.67664 9.08894 2.57601 11.7618C2.51153 11.8177 2.44382 11.8747 2.37396 11.9327C1.93547 12.3024 1.38843 12.7624 0.924142 13.3728C-0.0570948 14.6593 -0.0828886 15.8673 0.0686496 16.6551L0.128835 16.9711L0.268551 17.2613L8.36456 34.1013L8.51502 34.4152L8.74609 34.6752C9.76279 35.8166 10.8977 36.0552 11.6705 36.0552C13.0364 36.0552 14.0832 35.3298 14.8463 34.801C15.0494 34.6602 15.2601 34.514 15.3987 34.4388C17.5278 33.2856 20.2125 32.6762 23.1648 32.6762C23.5463 32.6762 23.9375 32.6859 24.3266 32.7063C24.7866 32.73 25.354 32.8353 25.9537 32.946C26.7007 33.0846 27.4734 33.2276 28.2461 33.2523C28.2956 33.2534 28.345 33.2544 28.3923 33.2544C29.8486 33.2544 30.617 32.5021 30.9448 32.054C31.5391 31.2425 31.6552 30.2463 31.2898 29.0931L31.2285 28.8996L31.1361 28.719L21.2722 9.35118L21.1948 9.19964L21.097 9.05992C20.09 7.6144 18.3962 7.4059 17.4869 7.29413C17.4354 7.28768 17.3859 7.28123 17.3365 7.27586C16.5584 7.1759 15.7029 7.12217 14.8624 7.12217V7.12109Z" fill="#4E5871"/>
<path d="M33.9774 2.4719C34.949 2.4719 35.9087 2.65568 36.4794 3.48968L45.3965 18.5392C46.2703 20.6307 43.678 20.65 42.369 21.0756C39.1985 22.1052 36.0441 24.3622 33.8001 26.8008C33.123 27.537 33.0951 28.3065 32.462 28.9019C32.2944 29.0588 32.1633 29.1878 31.9752 29.1878C31.8967 29.1878 31.8097 29.1652 31.7054 29.1147C31.5775 29.0513 21.0161 9.21696 21.4997 8.58931C24.049 5.27159 28.4704 2.87493 32.6523 2.54606C33.0714 2.51274 33.526 2.47297 33.9774 2.47297M33.9774 0C33.4701 0 32.994 0.0376159 32.5749 0.0709328L32.4577 0.0806054C27.5838 0.464287 22.5121 3.21239 19.5383 7.08145C19.1965 7.52532 18.844 8.28516 19.0987 9.3814C19.2234 9.91984 19.5168 11.1805 24.567 20.9542C25.66 23.0682 26.8949 25.4208 27.9546 27.4091C28.406 28.256 28.7972 28.9803 29.0841 29.5059C29.2271 29.7681 29.3421 29.9755 29.4248 30.1217C29.6204 30.4667 29.917 30.9879 30.6081 31.3297C31.0498 31.5479 31.5098 31.6586 31.973 31.6586C33.137 31.6586 33.8409 30.9955 34.1418 30.7128L34.1537 30.7021C34.8146 30.0809 35.1392 29.3995 35.3531 28.9481C35.4734 28.6945 35.5401 28.558 35.6175 28.4741C37.7594 26.1452 40.5688 24.2579 43.131 23.4261C43.2739 23.3799 43.5318 23.3218 43.7823 23.267C44.9784 23.0016 46.7862 22.6007 47.6502 20.9348C48.0103 20.2406 48.3069 19.096 47.676 17.586L47.6094 17.4269L47.5213 17.2786L38.6052 2.22901L38.5633 2.15915L38.5171 2.09252C37.566 0.703954 36.0377 0 33.9763 0H33.9774Z" fill="#4E5871"/>
<path d="M47.2503 25.9114C47.3298 25.8318 47.5356 25.415 47.4718 24.749C47.3775 23.7649 45.639 21.6171 45.38 21.3795C44.7792 20.8293 43.1778 22.4464 42.6641 22.6098C38.2018 24.0263 36.3317 25.5889 33.0441 29.1646C32.6013 29.6461 30.0144 31.342 28.9429 32.334C28.6968 32.2846 28.47 32.2426 28.2852 32.2072C24.3914 31.457 19.9387 31.4387 16.2954 33.1583C14.6457 33.9375 13.6719 35.2981 11.6697 35.066C10.5219 34.9327 9.50733 34.1385 8.96889 33.1454L1.8079 18.2721C1.6123 17.9852 1.25334 17.9389 0.933067 18.0099C0.339811 18.141 -0.0965333 19.1781 0.0184638 19.7348L10.3628 41.3145C10.7884 42.055 11.4333 42.4065 12.2941 42.271C12.9347 42.17 14.55 40.3419 15.2056 39.8099C18.9715 36.7544 23.9185 35.3605 28.7495 35.397C29.3384 35.4013 30.1692 35.5582 30.8527 35.6109C31.0279 35.6238 31.1977 35.6657 31.3664 35.7119C32.094 35.9064 32.7787 34.7479 33.3107 34.2718C35.9158 31.9449 39.5183 30.9884 42.9317 30.6735C43.7743 30.5961 45.8453 30.9444 45.5444 29.3559C45.4477 28.8475 43.6099 26.4509 43.7378 26.2671C44.2891 26.0188 46.815 26.3509 47.2503 25.9135V25.9114Z" fill="#4E5871"/>
<path d="M31.9797 30.4232C31.7078 30.4232 31.4327 30.3555 31.1629 30.2222C30.8914 30.0882 30.1878 28.9569 29.0522 26.8282C27.9946 24.8453 26.7619 22.4992 25.6721 20.3884C20.6928 10.7523 20.4037 9.51094 20.3092 9.10254C20.2651 8.91553 20.1329 8.34485 20.5252 7.83434C23.2959 4.22967 28.0193 1.66857 32.5612 1.31176L32.6794 1.30208C33.076 1.27092 33.5252 1.23438 33.9841 1.23438C34.5914 1.23438 36.441 1.23438 37.5061 2.78952L37.5286 2.82284L46.5102 17.981L46.5435 18.0605C46.9025 18.9192 46.9079 19.6941 46.5607 20.3636C45.9621 21.5168 44.6101 21.8178 43.5224 22.0585C43.2312 22.123 42.9571 22.1843 42.7572 22.2487C40.0016 23.144 36.9956 25.157 34.716 27.6353C34.5097 27.86 34.3925 28.105 34.2453 28.4145C34.0497 28.8261 33.8057 29.3377 33.3146 29.7999L33.3027 29.8106C33.076 30.0234 32.6547 30.421 31.9808 30.421L31.9797 30.4232Z" fill="#FFFFFF"/>
</g>
<defs>
<clipPath id="clip0_3344_1313">
<rect width="48.043" height="42.2996" fill="black"/>
</clipPath>
</defs>
</svg>
