<svg width="118" height="118" viewBox="0 0 118 118" fill="none" xmlns="http://www.w3.org/2000/svg">
  <g clip-path="url(#clip0_1255_29)">
    <path
      d="M90.6081 38.9243L73.7544 22.2227C72.8351 21.3089 71.5583 20.7505 70.2305 20.7505H39.179C35.4507 20.7505 32.4375 23.7456 32.4375 27.4515V44.9146L34.94 47.4021L59.0969 71.4139C60.629 72.9369 61.7526 74.8152 62.3144 76.8965L64.1019 83.1914C64.5615 84.8666 64.2551 86.5927 63.1826 87.9125C62.1612 89.2832 60.5269 90.0447 58.8415 90.0447C58.3308 90.0447 57.8712 89.9939 57.3604 89.8416L51.0276 88.0648C48.9336 87.5064 47.044 86.3896 45.5118 84.8666L32.4375 71.8708V89.9939C32.4375 93.6998 35.4507 96.6949 39.179 96.6949H85.3477C89.0759 96.6949 92.1402 93.6998 92.1402 89.9939V42.4779C92.1402 41.158 91.6295 39.8889 90.6591 38.9751L90.6081 38.9243ZM86.4202 43.544H75.0312C71.4051 43.544 68.494 40.6504 68.494 37.046V25.7255C68.494 25.2686 69.0048 25.0655 69.3623 25.3701L86.7777 42.681C87.0841 42.9855 86.8798 43.544 86.4202 43.544Z"
      fill="#4E5871"/>
    <path
      d="M48.1725 82.3288C49.245 83.3948 50.5729 84.1563 52.0029 84.5624L58.3357 86.3392C58.3357 86.3392 58.6422 86.39 58.7954 86.39C59.8168 86.39 60.685 85.3747 60.3786 84.3086L58.5911 78.0138C58.1825 76.5416 57.4165 75.2217 56.344 74.2064L32.3914 50.3469L32.1871 50.1438L24.0156 58.2662L32.4424 66.6424L48.2236 82.3288H48.1725Z"
      fill="#4E5871"/>
    <path
      d="M25.9115 43.8991C23.6644 41.6655 19.9872 41.6655 17.7401 43.8991C15.4929 46.1328 15.4929 49.7879 17.7401 52.0215L21.0086 55.2705L29.1801 47.1481L25.9115 43.8991Z"
      fill="#4E5871"/>
  </g>
  <defs>
    <clipPath id="clip0_1255_29">
      <rect width="76.0967" height="76.0967" fill="white" transform="translate(15.9961 20.7505)"/>
    </clipPath>
  </defs>
</svg>
