<svg width="32" height="28" viewBox="0 0 32 28" fill="none" xmlns="http://www.w3.org/2000/svg">
<g clip-path="url(#clip0_3072_3056)">
<path d="M21.8764 1.25696C19.1105 1.47442 16.1876 3.05918 14.5019 5.25297C14.1828 5.66871 14.0308 5.83571 14.1999 6.40423C16.1805 10.0805 17.9166 13.8903 19.8638 17.5828C19.9818 17.8067 20.669 19.1392 20.7529 19.1811C20.9874 19.2969 21.0968 19.1875 21.2532 19.0404C21.6717 18.6474 22.1877 17.7825 22.6354 17.2957C24.1192 15.6833 26.205 14.1909 28.3014 13.5101C29.167 13.2287 30.8811 13.2159 30.3033 11.8329L24.4078 1.88162C23.8549 1.07432 22.7491 1.18873 21.8771 1.25696H21.8764ZM9.2978 5.94657C6.98959 6.11642 4.79651 7.09073 3.05754 8.5895C2.56932 9.01021 1.80181 9.56949 1.93755 10.2787L7.29091 21.414C8.09111 22.3123 8.92116 21.3251 9.6908 20.9087C11.7375 19.7994 14.1438 19.4483 16.4569 19.5677C17.2913 19.611 18.2521 19.9031 19.016 19.9273C19.4907 19.9422 19.5518 19.7255 19.419 19.3055L12.8966 6.49875C12.6265 6.11144 11.9898 6.06312 11.5421 6.00556C10.8243 5.91317 10.0205 5.89398 9.2978 5.94657ZM0.622836 11.909C0.230554 11.9957 -0.0579718 12.6815 0.0180683 13.0496L6.85812 27.3188C7.13954 27.8085 7.56594 28.0408 8.13517 27.9513C8.55872 27.8845 9.62684 26.6757 10.0603 26.3239C12.5505 24.3035 15.8216 23.3818 19.016 23.4059C19.5248 23.4095 20.3059 23.5857 20.7877 23.5552C21.6213 23.5026 21.0705 22.4537 20.7848 22.0628C20.4459 21.5988 19.279 21.4076 18.7076 21.2974C16.1329 20.8014 13.1886 20.7893 10.7795 21.9264C9.68866 22.4416 9.04481 23.3413 7.72086 23.1878C6.96188 23.0997 6.29102 22.5745 5.93498 21.9178L1.2006 12.0831C1.07126 11.8933 0.8339 11.8628 0.622125 11.9097L0.622836 11.909Z" fill="#88F1CE"/>
<path d="M7.73283 23.0224C7.38887 23.0224 6.88004 22.9116 6.40959 22.3828L6.33284 22.2969L0.883535 10.9626L0.863637 10.8581C0.65044 9.74668 1.56576 8.97562 2.11226 8.51512C2.16058 8.4739 2.2082 8.4341 2.25297 8.39573C4.17174 6.74203 6.55598 5.73361 8.96724 5.55666C9.25008 5.53605 9.545 5.52539 9.84419 5.52539C10.3658 5.52539 10.8952 5.55808 11.3764 5.61991L11.4801 5.6327C12.0216 5.6995 12.8389 5.7997 13.2966 6.45635L13.3285 6.50254L19.9071 19.4187L19.9277 19.4827C19.9867 19.6688 20.1665 20.236 19.8197 20.7107C19.6662 20.9203 19.3634 21.1698 18.7913 21.1698C18.7686 21.1698 18.7451 21.1698 18.721 21.1683C18.2726 21.1541 17.7922 21.0653 17.3281 20.9793C16.923 20.904 16.5037 20.8265 16.1456 20.808C15.8741 20.7938 15.6019 20.7867 15.3354 20.7867C13.2184 20.7867 11.3593 21.2124 9.81079 22.051C9.68003 22.1213 9.52937 22.2265 9.36947 22.3366C8.90683 22.6572 8.38237 23.0203 7.73496 23.0203L7.73283 23.0224Z" fill="#88F1CE"/>
<path d="M9.83537 6.34349C10.3172 6.34349 10.8068 6.37263 11.2624 6.43161C11.7094 6.48918 12.3461 6.5375 12.6169 6.92481L19.1393 19.7315C19.2679 20.138 19.2153 20.3541 18.7818 20.3541C18.7676 20.3541 18.752 20.3541 18.737 20.3533C17.9738 20.3292 17.0123 20.0364 16.178 19.9938C15.8951 19.9788 15.6102 19.9717 15.3252 19.9717C13.2806 19.9717 11.2076 20.3612 9.41111 21.3348C8.86817 21.629 8.29538 22.206 7.72473 22.206C7.48595 22.206 7.24717 22.1051 7.01123 21.84L1.65787 10.7048C1.52213 9.99555 2.28893 9.43626 2.77786 9.01555C4.51683 7.51678 6.70991 6.54247 9.01812 6.37263C9.28249 6.35344 9.55751 6.34349 9.83537 6.34349ZM9.83537 4.70898C9.51629 4.70898 9.20147 4.72035 8.89873 4.74239C6.31408 4.93213 3.7614 6.01019 1.71116 7.77759C1.66853 7.81455 1.62375 7.85221 1.57756 7.89059C1.28761 8.13505 0.925891 8.43921 0.618888 8.84287C-0.0299406 9.69352 -0.0469963 10.4923 0.053206 11.0132L0.0930027 11.2221L0.185388 11.414L5.53875 22.5493L5.63825 22.7568L5.79104 22.9288C6.46332 23.6835 7.21377 23.8412 7.72473 23.8412C8.62797 23.8412 9.32015 23.3616 9.82471 23.0119C9.95903 22.9188 10.0983 22.8222 10.19 22.7724C11.5978 22.0099 13.373 21.6069 15.3252 21.6069C15.5775 21.6069 15.8361 21.6133 16.0934 21.6268C16.3976 21.6425 16.7728 21.7121 17.1693 21.7853C17.6632 21.877 18.1742 21.9715 18.6852 21.9879C18.7179 21.9886 18.7505 21.9893 18.7818 21.9893C19.7447 21.9893 20.2529 21.4918 20.4696 21.1955C20.8626 20.6589 20.9394 20.0002 20.6977 19.2376L20.6572 19.1097L20.5961 18.9903L14.0737 6.18359L14.0226 6.08339L13.9579 5.99101C13.292 5.03518 12.172 4.89731 11.5708 4.8234C11.5367 4.81914 11.504 4.81487 11.4713 4.81132C10.9568 4.74523 10.3911 4.70969 9.83537 4.70969V4.70898Z" fill="#00805B"/>
<path d="M21.1552 20.1171C20.9754 20.1171 20.7935 20.0723 20.6151 19.9842C20.4356 19.8956 19.9703 19.1475 19.2194 17.7399C18.5201 16.4288 17.705 14.8774 16.9844 13.4817C13.6919 7.10997 13.5008 6.28916 13.4382 6.01911C13.4091 5.89546 13.3217 5.5181 13.5811 5.18054C15.4131 2.797 18.5365 1.10351 21.5397 0.867573L21.6179 0.861178C21.8801 0.840569 22.1771 0.816406 22.4806 0.816406C22.8821 0.816406 24.1052 0.816406 24.8094 1.84472L24.8243 1.86675L30.7633 11.8898L30.7853 11.9424C31.0227 12.5102 31.0262 13.0226 30.7967 13.4654C30.4008 14.2279 29.5068 14.4269 28.7877 14.5861C28.5951 14.6287 28.4139 14.6692 28.2817 14.7118C26.4595 15.3038 24.4718 16.6349 22.9645 18.2737C22.8281 18.4222 22.7506 18.5842 22.6533 18.7889C22.5239 19.0611 22.3626 19.3993 22.0379 19.7049L22.03 19.712C21.8801 19.8527 21.6015 20.1157 21.1559 20.1157L21.1552 20.1171Z" fill="#88F1CE"/>
<path d="M22.4779 1.63451C23.1203 1.63451 23.7549 1.75603 24.1323 2.3075L30.0286 12.2588C30.6063 13.6417 28.8923 13.6545 28.0267 13.9359C25.9302 14.6168 23.8445 16.1091 22.3606 17.7216C21.9129 18.2084 21.8944 18.7172 21.4759 19.1109C21.365 19.2147 21.2783 19.3 21.1539 19.3C21.102 19.3 21.0445 19.2851 20.9755 19.2516C20.891 19.2097 13.9074 6.09458 14.2272 5.67956C15.9128 3.48576 18.8365 1.901 21.6016 1.68354C21.8788 1.66151 22.1794 1.63522 22.4779 1.63522M22.4779 0C22.1424 0 21.8276 0.0248729 21.5505 0.0469032L21.473 0.0532991C18.2502 0.307003 14.8966 2.12415 12.9302 4.68251C12.7042 4.97601 12.4711 5.47844 12.6396 6.20331C12.722 6.55935 12.916 7.39295 16.2554 13.8556C16.9781 15.2535 17.7947 16.8091 18.4954 18.1238C18.7938 18.6838 19.0525 19.1628 19.2423 19.5103C19.3368 19.6837 19.4128 19.8209 19.4675 19.9175C19.5969 20.1457 19.793 20.4903 20.25 20.7163C20.5421 20.8606 20.8462 20.9338 21.1525 20.9338C21.9221 20.9338 22.3876 20.4953 22.5866 20.3084L22.5944 20.3013C23.0315 19.8905 23.2461 19.44 23.3875 19.1415C23.4671 18.9738 23.5112 18.8835 23.5623 18.8281C24.9787 17.2881 26.8363 16.0402 28.5305 15.4902C28.625 15.4596 28.7956 15.4212 28.9612 15.385C29.7521 15.2094 30.9475 14.9444 31.5188 13.8429C31.7569 13.3838 31.953 12.6269 31.5359 11.6285L31.4918 11.5233L31.4336 11.4252L25.538 1.4739L25.5102 1.42771L25.4797 1.38365C24.8508 0.465479 23.8402 0 22.4772 0H22.4779Z" fill="#00805B"/>
<path d="M31.2494 17.1348C31.302 17.0822 31.4381 16.8066 31.3959 16.3662C31.3336 15.7155 30.184 14.2953 30.0127 14.1382C29.6155 13.7744 28.5566 14.8437 28.2169 14.9517C25.2662 15.8883 24.0297 16.9216 21.8558 19.286C21.563 19.6043 19.8525 20.7257 19.1439 21.3817C18.9812 21.349 18.8312 21.3213 18.709 21.2978C16.1343 20.8018 13.1901 20.7897 10.7809 21.9268C9.69009 22.442 9.04623 23.3417 7.72228 23.1882C6.9633 23.1001 6.29244 22.5749 5.93641 21.9182L1.20131 12.0835C1.07197 11.8937 0.834611 11.8632 0.622836 11.9101C0.230554 11.9968 -0.0579718 12.6826 0.0180683 13.0507L6.85812 27.3199C7.13954 27.8096 7.56594 28.0419 8.13517 27.9524C8.55872 27.8856 9.62684 26.6768 10.0603 26.325C12.5505 24.3046 15.8216 23.3829 19.016 23.4071C19.4055 23.4099 19.9548 23.5137 20.4068 23.5485C20.5226 23.557 20.6349 23.5847 20.7465 23.6153C21.2276 23.7439 21.6803 22.9778 22.032 22.663C23.7547 21.1244 26.1368 20.4919 28.3938 20.2837C28.951 20.2326 30.3204 20.4628 30.1214 19.4125C30.0575 19.0763 28.8422 17.4916 28.9268 17.37C29.2914 17.2059 30.9616 17.4255 31.2494 17.1362V17.1348Z" fill="#00805B"/>
</g>
<defs>
<clipPath id="clip0_3072_3056">
<rect width="31.7677" height="27.97" fill="white"/>
</clipPath>
</defs>
</svg>
